# xmcd
#
# Track frame offsets:
#	150
#	3122
#	17964
#	36374
#	53899
#	66571
#	85385
#	105778
#	116153
#	132257
#	144913
#	158151
#	176244
#	192159
#	209089
#	228720
#	244644
#	263746
#	278871
#	298186
#	316017
#	330418
#
# Disc length: 4660 seconds
#
# Revision: 1
# Processed by: cddbd v1.5.2PL0 Copyright (c) Steve Scherf et al.
# Submitted via: audiograbber 1.83.01
#
DISCID=43123216
DTITLE=Diamond Back of Texas - Diamond Back of Texas 010
DYEAR=2006
DGENRE=Country
TTITLE0=B. Jeff and Patricia Stone - Introduction
TTITLE1=B. Jeff and Patricia Stone - When It's Christmas Time In Texas
TTITLE2=Suzie Merwine - The Gift
TTITLE3=Mak Kaylor - It's Christmas
TTITLE4=William Ray - Rockabilly Christmas
TTITLE5=Tim Buppert - And Then There's You
TTITLE6=Captain 'T' (John Hunnicut) - Christmas In The Ozarks
TTITLE7=Bruce Greaves - Holly Jolly Christmas
TTITLE8=William Ray - What Will Santa Wear
TTITLE9=Julie Maners - When Santa Lost His Spectacles
TTITLE10=Andy Martin - Away In A Manger
TTITLE11=Bruce Greaves - Have Yourself A Merry Little Christmas
TTITLE12=Larry La Vey - I Need To Go Home For Christmas
TTITLE13=Noel Parlane - Far Side Banks Of Jordan
TTITLE14=Colean Mc Killop - Make Us Proud (You're Our Son)
TTITLE15=Jeff B. Stone - It Took Me To This Time
TTITLE16=Mak Kaylor - Without Love
TTITLE17=Julie Maners - Chritmas Time Magic
TTITLE18=Joe Salucci - My Inspiration
TTITLE19=Unkown Artist - Santa
TTITLE20=Patricia Stone - Peace in The Valley 
TTITLE21=B. Jeff and Patricia Stone - Better That You Are
EXTD=
EXTT0=
EXTT1=
EXTT2=
EXTT3=
EXTT4=
EXTT5=
EXTT6=
EXTT7=
EXTT8=
EXTT9=
EXTT10=
EXTT11=
EXTT12=
EXTT13=
EXTT14=
EXTT15=
EXTT16=
EXTT17=
EXTT18=
EXTT19=
EXTT20=
EXTT21=
PLAYORDER=
